<?xml version="1.0" encoding="UTF-8"?><svg xmlns="http://www.w3.org/2000/svg" width="184" height="184" viewBox="0 0 92 92" role="img" aria-label="M7 icon-container normal" data-style="m11-enchanted-forest@0.1.0" data-geometry-shape="chamfered-angular" data-corner-radius="2" data-end-cap-depth="22"><defs><linearGradient id="m11-icon-container-92x92-normal-plate" x1="0" y1="0" x2="0" y2="1"><stop offset="0" stop-color="#5C7650"/><stop offset=".48" stop-color="#20382B"/><stop offset="1" stop-color="#13251E"/></linearGradient><linearGradient id="m11-icon-container-92x92-normal-primary" x1="0" y1="0" x2="0" y2="1"><stop offset="0" stop-color="#F1E8C8"/><stop offset=".45" stop-color="#66D9B2"/><stop offset="1" stop-color="#2A856F"/></linearGradient><linearGradient id="m11-icon-container-92x92-normal-energy" x1="0" y1="0" x2="1" y2="0"><stop offset="0" stop-color="#B8E0A5" stop-opacity="0"/><stop offset=".5" stop-color="#B8E0A5" stop-opacity=".86"/><stop offset="1" stop-color="#B8E0A5" stop-opacity="0"/></linearGradient><pattern id="m11-icon-container-92x92-normal-grain" width="28" height="28" patternUnits="userSpaceOnUse"><circle cx="5" cy="7" r=".6" fill="#FFFFFF" fill-opacity=".12"/><circle cx="20" cy="15" r=".45" fill="#061321" fill-opacity=".2"/></pattern><pattern id="m11-icon-container-92x92-normal-plate-pattern" width="44" height="44" patternUnits="userSpaceOnUse"><path d="M0 22H44M22 0V44M0 22L22 0 44 22 22 44Z" fill="none" stroke="#D8FBFF" stroke-opacity=".12" stroke-width=".8"/></pattern><mask id="m11-icon-container-92x92-normal-mask"><path d="M24 2H68L90 24V64L68 86H24L2 64V24Z" fill="white"/></mask></defs><g opacity="1"><g id="m11-icon-container-92x92-normal-outer-shadow" data-layer="outer-shadow" transform="translate(0 5)"><path d="M24 2H68L90 24V64L68 86H24L2 64V24Z" fill="#020812" opacity=".82"/></g><g id="m11-icon-container-92x92-normal-connected-depth" data-layer="connected-depth" transform="translate(0 2.5)"><path d="M24 2H68L90 24V64L68 86H24L2 64V24Z" fill="#071522" opacity=".9"/></g><g id="m11-icon-container-92x92-normal-outer-frame" data-layer="outer-frame"><path d="M24 2H68L90 24V64L68 86H24L2 64V24Z" fill="#071421" stroke="#D4D9A6" stroke-width="2" stroke-linejoin="miter"/></g><g id="m11-icon-container-92x92-normal-inner-plate-fill" data-layer="inner-plate-fill"><path d="M24 2H68L90 24V64L68 86H24L2 64V24Z" fill="url(#m11-icon-container-92x92-normal-plate)"/></g><g id="m11-icon-container-92x92-normal-surface-grain" data-layer="surface-grain" data-material-source="m8-ice-grain" mask="url(#m11-icon-container-92x92-normal-mask)"><rect width="92" height="92" fill="url(#m11-icon-container-92x92-normal-grain)"/></g><g id="m11-icon-container-92x92-normal-surface-pattern" data-layer="surface-pattern" data-material-source="m8-crystal-facet-pattern" mask="url(#m11-icon-container-92x92-normal-mask)"><rect width="92" height="92" fill="url(#m11-icon-container-92x92-normal-plate-pattern)"/></g><g id="m11-icon-container-92x92-normal-side-bevel-shade" data-layer="side-bevel-shade" mask="url(#m11-icon-container-92x92-normal-mask)"><path d="M24 2H68L90 24V64L68 86H24L2 64V24Z" fill="none" stroke="#020812" stroke-opacity=".38" stroke-width="5"/></g><g id="m11-icon-container-92x92-normal-top-bevel-highlight" data-layer="top-bevel-highlight" mask="url(#m11-icon-container-92x92-normal-mask)"><path d="M32 8H60" stroke="#FFFFFF" stroke-opacity=".55" stroke-width="3" stroke-linecap="square"/></g><g id="m11-icon-container-92x92-normal-cold-edge-accent" data-layer="cold-edge-accent" data-material-source="m8-cold-edge-accent" mask="url(#m11-icon-container-92x92-normal-mask)"><rect x="22" y="6" width="48" height="8" fill="url(#m11-icon-container-92x92-normal-energy)"/></g><g id="m11-icon-container-92x92-normal-ornament-decal" data-layer="ornament-decal" data-material-source="m7-ornament-marks" mask="url(#m11-icon-container-92x92-normal-mask)"><path d="M30 79h16M46 79h16" stroke="#E6FCFF" stroke-opacity=".5" stroke-width="2"/></g><g id="m8-icon-container-crystal-focal" data-layer="crystal-focal" data-slot="editable-crystal-focal" aria-label="editable crystal focal"><path d="M46 31l12 15-12 15-12-15Z" fill="#A9F7FF" fill-opacity=".42" stroke="#E8FEFF" stroke-width="1.5"/><path d="M46 31v30M34 46h24" stroke="#D7FBFF" stroke-opacity=".8"/><path d="M46 36l7 10-7 10-7-10Z" fill="#FFFFFF" fill-opacity=".5"/></g><g id="m11-icon-container-material-stack" data-layer="forest-material-stack" data-material-families="weathered-stone,dark-wood,moss-lichen"><path d="M26 4H66L88 26V64L66 86H26L4 64V26Z" fill="#20382B"/></g><g id="m11-icon-container-material-detail" data-layer="forest-material-detail" data-material-channels="stone-chips,wood-grain,moss-mask" data-detail-scale="component"><path d="M15.64 16.56l7.36 4.6000000000000005M57.04 14.72l6.44 5.52M25.76 64.39999999999999l6.44 3.68" stroke="#6B8063" stroke-width="1.2" stroke-opacity=".72"/></g><g id="m11-icon-container-material-face-depth" data-layer="forest-material-face-depth" data-material-source="shared-face-geometry"><clipPath id="m11-icon-container-face-clip"><path d="M26 4H66L88 26V64L66 86H26L4 64V26Z"/></clipPath><g clip-path="url(#m11-icon-container-face-clip)"><g data-layer="forest-weathered-stone"><path d="M11.04 20.24l4.14 2.3000000000000003 -2.3000000000000003 3.68 -4.14 -1.656ZM70.84 67.16l4.6000000000000005 1.84 -1.656 4.14 -4.784 -1.656Z" fill="#7C8D70" fill-opacity=".45"/><path d="M29.44 12.88l1.656 2.392 -1.84 2.576M62.56 75.44l1.84 -2.576 1.9320000000000002 2.3000000000000003" fill="none" stroke="#9BA687" stroke-width="1" stroke-opacity=".55"/></g><g data-layer="forest-dark-wood-grain"><path d="M10.12 42.32q4.14 -1.656 8.28 0M38.64 46.92q3.68 1.656 7.36 0M66.24 43.239999999999995q4.14 -1.472 8.28 0" fill="none" stroke="#72854C" stroke-width="1.1" stroke-opacity=".62"/></g><g data-layer="forest-moss-growth-mask" fill="#9BCB78" fill-opacity=".48"><ellipse cx="16.56" cy="28.52" rx="2" ry="1.5"/><ellipse cx="75.44" cy="63.48" rx="2" ry="1.5"/></g></g></g><g id="m11-icon-container-material-restraint" data-layer="forest-material-restraint" data-restraint="edge-anchored-low-opacity"><clipPath id="m11-icon-container-restraint-clip"><path d="M26 4H66L88 26V64L66 86H26L4 64V26Z"/></clipPath><g clip-path="url(#m11-icon-container-restraint-clip)"><path d="M0 0H92V92H0Z" fill="#20382B" fill-opacity=".42"/><g data-layer="forest-moss-edge-anchor" fill="#20382B" fill-opacity=".78"><path d="M9.200000000000001 25.76q5.52 -4.6000000000000005 11.96 0q4.6000000000000005 3.68 10.12 -.01l-2.76 4.6000000000000005q-12.88 3.68 -23 -.02Z"/><path d="M57.96 68.08q7.36 -5.52 15.64 -.01q7.36 3.68 12.88 -.03l-1.84 5.52q-14.72 4.14 -27.599999999999998 -.01Z"/></g><path d="M7.36 15.64q4.14 -2.576 8.28 0M71.76 75.44q4.14 -2.576 8.28 0" fill="none" stroke="#9BCB78" stroke-width="1.5" stroke-opacity=".42"/></g></g><g id="m11-icon-container-authored-material-clusters" data-layer="forest-authored-material-clusters" data-material-families="stone,wood,moss" data-variation-seed="51731" data-cluster-count="5" data-cluster-scale="component" data-placement="component-aware"><clipPath id="m11-icon-container-cluster-clip"><path d="M26 4H66L88 26V64L66 86H26L4 64V26Z"/></clipPath><g clip-path="url(#m11-icon-container-cluster-clip)"><g data-layer="forest-authored-cluster" data-cluster-kind="stone-chip" transform="translate(16.6 14.2) rotate(-4)"><g data-layer="forest-stone-chip-cluster" data-material-family="stone" transform="scale(1.333)"><path d="M-4.8-1.2l2.2-3.1 4.1.5 3.4 2.5-1.2 3.9-4.3 1.8-4.7-2.1Z" fill="#75816E" fill-opacity=".82" stroke="#A6AE91" stroke-width="0.70"/><path d="M-2.6-3.4l2.1 2.5 2.8-1.4M-.5-.9l-1.2 3.5" fill="none" stroke="#495C4C" stroke-width="0.70" stroke-opacity=".9"/><path d="M-3.8-1.7l2.2-1.5" stroke="#C0C5A9" stroke-width="0.70" stroke-opacity=".48"/></g></g><g data-layer="forest-authored-cluster" data-cluster-kind="wood-knot" transform="translate(69.4 14.6) rotate(-1)"><g data-layer="forest-wood-knot-cluster" data-material-family="wood" transform="scale(1.204)"><path d="M-6.5 2.8q3.2-2.1 5.8-1.4 2.9.8 7.1-2.2M-6-1.1q3.1-3.1 6.3-1.4 2.8 1.5 6.2-.7M-4.4 4.5q4.1-1.8 8.8-.3" fill="none" stroke="#7F8D57" stroke-width="0.70" stroke-opacity=".9"/><path d="M-2.9.7c-.1-2.7 2.2-3.7 4.5-2.5 2 1 1.9 3.5.1 4.8-2.1 1.6-4.5.2-4.6-2.3Z" fill="#435238" fill-opacity=".9"/><path d="M-1.8.5c.2-1.6 1.7-2.2 3-1.4 1.1.7.9 2.1-.1 2.7-.9.5-1.8.2-2.1-.5.1-.7.8-1 1.4-.6" fill="none" stroke="#A0AE70" stroke-width="0.70" stroke-opacity=".9"/><path d="M2.3-3.1q1.9 1.2 3.5.1" fill="none" stroke="#A0AE70" stroke-width="0.70" stroke-opacity=".55"/></g></g><g data-layer="forest-authored-cluster" data-cluster-kind="moss-lichen" transform="translate(14.8 68.2) rotate(-2)"><g data-layer="forest-moss-lichen-cluster" data-material-family="moss" transform="scale(1.135)"><path d="M-6.5 3.4l.8-3.1 1.7.5.9-3 2.1 1.1 1.3-3 1.8 2.2 2.2-1.3.6 2.5 2.3.6-1 3.1-2.8-.4-1.6 1.8-2.2-1-2.4 1.2-1.8-1.3Z" fill="#668E58" fill-opacity=".88" stroke="#94BF70" stroke-width="0.70"/><ellipse cx="-3.7" cy="-.7" rx="1.35" ry="1" fill="#A8CF79"/><ellipse cx="-.4" cy="-1.7" rx="1.65" ry="1.2" fill="#7FB467"/><ellipse cx="3" cy="-.5" rx="1.45" ry="1.1" fill="#B7D985"/><circle cx="5.1" cy="-2.3" r=".65" fill="#D0E39A"/><circle cx="-1.8" cy="1.6" r=".7" fill="#B8D986"/><path d="M-5.7 3.5q5.8 1.5 11.3-.5" fill="none" stroke="#405B3C" stroke-width="0.70"/></g></g><g data-layer="forest-authored-cluster" data-cluster-kind="stone-chip" transform="translate(73.0 72.6) rotate(-2)"><g data-layer="forest-stone-chip-cluster" data-material-family="stone" transform="scale(1.419)"><path d="M-4.8-1.2l2.2-3.1 4.1.5 3.4 2.5-1.2 3.9-4.3 1.8-4.7-2.1Z" fill="#75816E" fill-opacity=".82" stroke="#A6AE91" stroke-width="0.70"/><path d="M-2.6-3.4l2.1 2.5 2.8-1.4M-.5-.9l-1.2 3.5" fill="none" stroke="#495C4C" stroke-width="0.70" stroke-opacity=".9"/><path d="M-3.8-1.7l2.2-1.5" stroke="#C0C5A9" stroke-width="0.70" stroke-opacity=".48"/></g></g><g data-layer="forest-authored-cluster" data-cluster-kind="wood-knot" transform="translate(45.9 11.1) rotate(4)"><g data-layer="forest-wood-knot-cluster" data-material-family="wood" transform="scale(1.263)"><path d="M-6.5 2.8q3.2-2.1 5.8-1.4 2.9.8 7.1-2.2M-6-1.1q3.1-3.1 6.3-1.4 2.8 1.5 6.2-.7M-4.4 4.5q4.1-1.8 8.8-.3" fill="none" stroke="#7F8D57" stroke-width="0.70" stroke-opacity=".9"/><path d="M-2.9.7c-.1-2.7 2.2-3.7 4.5-2.5 2 1 1.9 3.5.1 4.8-2.1 1.6-4.5.2-4.6-2.3Z" fill="#435238" fill-opacity=".9"/><path d="M-1.8.5c.2-1.6 1.7-2.2 3-1.4 1.1.7.9 2.1-.1 2.7-.9.5-1.8.2-2.1-.5.1-.7.8-1 1.4-.6" fill="none" stroke="#A0AE70" stroke-width="0.70" stroke-opacity=".9"/><path d="M2.3-3.1q1.9 1.2 3.5.1" fill="none" stroke="#A0AE70" stroke-width="0.70" stroke-opacity=".55"/></g></g></g></g><g id="m11-icon-container-moss-variation" data-layer="forest-variation" data-variation-seed="51731" data-variation-baseline="false" fill="#A6CC72" fill-opacity=".38"><circle cx="46.91" cy="18.73" r="3.0"/><circle cx="45.56" cy="36.43" r="2.4"/><circle cx="17.95" cy="15.70" r="1.8"/><circle cx="24.27" cy="27.52" r="2.0"/><circle cx="42.80" cy="49.85" r="2.0"/><circle cx="46.78" cy="68.32" r="2.0"/><circle cx="19.70" cy="39.44" r="1.7"/></g><g id="m11-icon-container-leaf-vine-ornament" data-layer="forest-ornament" data-ornament="leaf-vine" data-ornament-count="4" fill="none" stroke="#76B86D" stroke-opacity=".78" stroke-width="1.8"><path d="M12 18c8-8 14-8 20-2M80 18c-8-8-14-8-20-2M18 74c8-7 15-7 22-1M74 74c-8-7-15-7-22-1"/><path d="M24 14l5-5M68 14l-5-5"/></g><g id="m11-icon-container-luminous-seed" data-layer="luminous-seed-focal" data-focal="m11-luminous-seed" data-halo-opacity=".40" data-halo-extent-ratio=".12"><circle cx="46" cy="46" r="11.04" fill="#65D5A4" fill-opacity=".40"/><path d="M46 16l24 30-24 30-24-30Z" fill="#243D2C" stroke="#B9D995" stroke-width="2"/><circle cx="46" cy="46" r="11" fill="#B8F0B2" fill-opacity=".72"/></g><g id="m11-icon-container-seed-support" data-layer="forest-focal-support" fill="none" stroke="#6E8C5D" stroke-width="2"><path d="M12 74Q46 98 80 74"/></g><g id="m11-icon-container-seed-roots" data-layer="forest-focal-roots" data-focal-depth="seed-support-roots" fill="none" stroke="#89AE63" stroke-opacity=".72" stroke-width="1.6"><path d="M32 74q-18 18-40 16M60 74q18 18 40 16M40 78q-8 23-26 29M52 78q8 23 26 29"/></g><g id="m11-enchanted-forest-icon-container-content" data-layer="content" data-slot="editable-icon-container-content" data-safe-x="36" data-safe-y="8" data-safe-width="20" data-safe-height="74"/></g></svg>