<?xml version="1.0" encoding="UTF-8"?><svg xmlns="http://www.w3.org/2000/svg" width="464" height="112" viewBox="0 0 232 56" role="img" aria-label="M7 secondary-hex-button pressed" data-style="m11-enchanted-forest@0.1.0" data-geometry-shape="wide-hexagon" data-corner-radius="2" data-end-cap-depth="25"><defs><linearGradient id="m11-secondary-hex-button-232x56-pressed-plate" x1="0" y1="0" x2="0" y2="1"><stop offset="0" stop-color="#5C7650"/><stop offset=".48" stop-color="#20382B"/><stop offset="1" stop-color="#13251E"/></linearGradient><linearGradient id="m11-secondary-hex-button-232x56-pressed-primary" x1="0" y1="0" x2="0" y2="1"><stop offset="0" stop-color="#F1E8C8"/><stop offset=".45" stop-color="#66D9B2"/><stop offset="1" stop-color="#2A856F"/></linearGradient><linearGradient id="m11-secondary-hex-button-232x56-pressed-energy" x1="0" y1="0" x2="1" y2="0"><stop offset="0" stop-color="#B8E0A5" stop-opacity="0"/><stop offset=".5" stop-color="#B8E0A5" stop-opacity=".86"/><stop offset="1" stop-color="#B8E0A5" stop-opacity="0"/></linearGradient><pattern id="m11-secondary-hex-button-232x56-pressed-grain" width="28" height="28" patternUnits="userSpaceOnUse"><circle cx="5" cy="7" r=".6" fill="#FFFFFF" fill-opacity=".12"/><circle cx="20" cy="15" r=".45" fill="#061321" fill-opacity=".2"/></pattern><pattern id="m11-secondary-hex-button-232x56-pressed-plate-pattern" width="44" height="44" patternUnits="userSpaceOnUse"><path d="M0 22H44M22 0V44M0 22L22 0 44 22 22 44Z" fill="none" stroke="#D8FBFF" stroke-opacity=".12" stroke-width=".8"/></pattern><mask id="m11-secondary-hex-button-232x56-pressed-mask"><path d="M27 4H205L230 28L205 52H27L2 28Z" fill="white"/></mask></defs><g opacity="1"><g id="m11-secondary-hex-button-232x56-pressed-outer-shadow" data-layer="outer-shadow" transform="translate(0 2)"><path d="M27 4H205L230 28L205 52H27L2 28Z" fill="#020812" opacity=".82"/></g><g id="m11-secondary-hex-button-232x56-pressed-connected-depth" data-layer="connected-depth" transform="translate(0 1)"><path d="M27 4H205L230 28L205 52H27L2 28Z" fill="#071522" opacity=".9"/></g><g id="m11-secondary-hex-button-232x56-pressed-outer-frame" data-layer="outer-frame"><path d="M27 4H205L230 28L205 52H27L2 28Z" fill="#071421" stroke="#D4D9A6" stroke-width="2" stroke-linejoin="miter"/></g><g id="m11-secondary-hex-button-232x56-pressed-inner-plate-fill" data-layer="inner-plate-fill"><path d="M27 4H205L230 28L205 52H27L2 28Z" fill="url(#m11-secondary-hex-button-232x56-pressed-plate)"/></g><g id="m11-secondary-hex-button-232x56-pressed-surface-grain" data-layer="surface-grain" data-material-source="m8-ice-grain" mask="url(#m11-secondary-hex-button-232x56-pressed-mask)"><rect width="232" height="56" fill="url(#m11-secondary-hex-button-232x56-pressed-grain)"/></g><g id="m11-secondary-hex-button-232x56-pressed-surface-pattern" data-layer="surface-pattern" data-material-source="m8-crystal-facet-pattern" mask="url(#m11-secondary-hex-button-232x56-pressed-mask)"><rect width="232" height="56" fill="url(#m11-secondary-hex-button-232x56-pressed-plate-pattern)"/></g><g id="m11-secondary-hex-button-232x56-pressed-side-bevel-shade" data-layer="side-bevel-shade" mask="url(#m11-secondary-hex-button-232x56-pressed-mask)"><path d="M27 4H205L230 28L205 52H27L2 28Z" fill="none" stroke="#020812" stroke-opacity=".38" stroke-width="5"/></g><g id="m11-secondary-hex-button-232x56-pressed-top-bevel-highlight" data-layer="top-bevel-highlight" mask="url(#m11-secondary-hex-button-232x56-pressed-mask)"><path d="M35 10H197" stroke="#FFFFFF" stroke-opacity=".55" stroke-width="3" stroke-linecap="square"/></g><g id="m11-secondary-hex-button-232x56-pressed-cold-edge-accent" data-layer="cold-edge-accent" data-material-source="m8-cold-edge-accent" mask="url(#m11-secondary-hex-button-232x56-pressed-mask)"><rect x="25" y="8" width="182" height="8" fill="url(#m11-secondary-hex-button-232x56-pressed-energy)"/></g><g id="m11-secondary-hex-button-232x56-pressed-ornament-decal" data-layer="ornament-decal" data-material-source="m7-ornament-marks" mask="url(#m11-secondary-hex-button-232x56-pressed-mask)"><path d="M33 43h16M183 43h16" stroke="#E6FCFF" stroke-opacity=".5" stroke-width="2"/></g><g id="m11-secondary-hex-button-material-stack" data-layer="forest-material-stack" data-material-families="weathered-stone,dark-wood,moss-lichen"><path d="M29 4H203L228 27L203 50H29L4 27Z" fill="#20382B"/></g><g id="m11-secondary-hex-button-integrated-material-regions" data-layer="forest-integrated-material-regions" data-integration="construction-profile-connected" data-variation-seed="51731" data-density-class="secondary-hex-button" data-cluster-budget="1" data-speckle-budget="1" data-ornament-budget="2" data-profile-stages="3" data-state-contract="contained-energy-compression" data-state="pressed"><defs><linearGradient id="m11-secondary-hex-button-stone-construction-depth" x2="1" y2="1"><stop stop-color="#BAC0A1" stop-opacity=".76"/><stop offset=".42" stop-color="#697765" stop-opacity=".72"/><stop offset="1" stop-color="#263C33" stop-opacity=".92"/></linearGradient><linearGradient id="m11-secondary-hex-button-wood-construction-depth" x2=".8" y2=".2"><stop stop-color="#172B21"/><stop offset=".45" stop-color="#4A5B3D"/><stop offset=".7" stop-color="#293C2C"/><stop offset="1" stop-color="#12251C"/></linearGradient></defs><clipPath id="m11-secondary-hex-button-construction-clip"><path d="M29 4H203L228 27L203 50H29L4 27Z"/></clipPath><g clip-path="url(#m11-secondary-hex-button-construction-clip)"><g data-layer="forest-wood-surface-region" data-material-family="wood" data-growth-vector="horizontal-action" data-construction-profile="growth-vector-body,single-recessed-relief,masked-termination"><path data-layer="forest-wood-growth-body" d="M21.7152 28H210.2848" stroke="url(#m11-secondary-hex-button-wood-construction-depth)" stroke-width="34.7" stroke-linecap="round"/><path data-layer="forest-wood-relief-bands" data-band-count="1" d="M26.492544 35.28Q116 37.18258239048533 205.507456 35.28" fill="none" stroke="#8A9C61" stroke-width="1.15" stroke-opacity="0.35"/></g><g data-layer="forest-stone-surface-region" data-material-family="stone" data-construction-profile="structural-end-plate,contact-occlusion,light-facing-bevel"><path d="M0 0H30.16L21.7152 28 30.16 56H0ZM232 0H201.84L210.2848 28 201.84 56H232Z" fill="url(#m11-secondary-hex-button-stone-construction-depth)" fill-opacity="0.86"/><path data-layer="forest-stone-contact-occlusion" d="M21.7152 10.08V45.919999999999995M210.2848 10.08V45.919999999999995" stroke="#10241C" stroke-width="3" stroke-opacity=".65"/><path data-layer="forest-stone-light-facing-bevel" d="M0 1H30.16M201.84 1H232" stroke="#D9D9B2" stroke-width="1.5" stroke-opacity="0.32"/></g><g data-layer="forest-moss-surface-region" data-material-family="moss" data-substrate="stone-wood-end-seam" data-construction-profile="anchored-substrate,irregular-transition,receiver-tint"><path data-layer="forest-moss-substrate" d="M21.7152 13.44Q30.16 6.72 43.732 11.200000000000001" fill="none" stroke="#3E613C" stroke-width="4.6"/><path data-layer="forest-moss-coverage-transition" d="M21.7152 13.44Q30.16 6.72 43.732 11.200000000000001" fill="none" stroke="#9AC979" stroke-width="1.6" stroke-dasharray="8 3 4 3"/></g><g data-layer="forest-living-light-surface-response" data-material-family="living-light" data-light-response="state-bound-material-receivers" data-receiver-opacity="0.62" data-edge-opacity="0.56"><path data-layer="forest-state-receiver-pulse" data-state-response="pressed" d="M21.7152 28H210.2848" fill="none" stroke="#D8FFD0" stroke-width="5.9" stroke-opacity="0.74"/><path data-layer="forest-wood-light-receiver" d="M21.7152 28H210.2848" fill="none" stroke="#66D9B2" stroke-width="3.9" stroke-opacity="0.62"/><path data-layer="forest-edge-light-receiver" d="M21.7152 6.72L15.634943999999999 28 21.7152 49.28M210.2848 6.72L216.365056 28 210.2848 49.28" fill="none" stroke="#B8F0B2" stroke-width="2.8" stroke-opacity="0.56"/><path data-layer="forest-moss-light-receiver" d="M21.7152 13.44Q30.16 6.72 43.732 11.200000000000001" fill="none" stroke="#C4F3B7" stroke-width="2.6" stroke-opacity="0.45"/></g></g></g><g id="m11-secondary-hex-button-authored-material-clusters" data-layer="forest-authored-material-clusters" data-material-families="stone,wood,moss" data-variation-seed="51731" data-cluster-count="1" data-cluster-scale="component" data-placement="construction-anchor-budgeted"><clipPath id="m11-secondary-hex-button-cluster-clip"><path d="M29 4H203L228 27L203 50H29L4 27Z"/></clipPath><g clip-path="url(#m11-secondary-hex-button-cluster-clip)"><g data-layer="forest-authored-cluster" data-cluster-kind="stone-chip" transform="translate(28.0 13.0) rotate(-3)"><g data-layer="forest-stone-chip-cluster" data-material-family="stone" transform="scale(1.006)"><path d="M-4.8-1.2l2.2-3.1 4.1.5 3.4 2.5-1.2 3.9-4.3 1.8-4.7-2.1Z" fill="#75816E" fill-opacity=".82" stroke="#A6AE91" stroke-width="0.70"/><path d="M-2.6-3.4l2.1 2.5 2.8-1.4M-.5-.9l-1.2 3.5" fill="none" stroke="#495C4C" stroke-width="0.70" stroke-opacity=".9"/><path d="M-3.8-1.7l2.2-1.5" stroke="#C0C5A9" stroke-width="0.70" stroke-opacity=".48"/></g></g></g></g><g id="m11-secondary-hex-button-moss-variation" data-layer="forest-variation" data-variation-seed="51731" data-variation-baseline="false" data-speckle-count="1" fill="#A6CC72" fill-opacity=".3"><circle cx="119.05" cy="16.07" r="2.0"/></g><g id="m11-secondary-hex-button-leaf-vine-ornament" data-layer="forest-ornament" data-ornament="leaf-vine" data-ornament-count="2" fill="none" stroke="#76B86D" stroke-opacity=".68" stroke-width="1.6"><path d="M12 18c8-8 14-8 20-2M220 18c-8-8-14-8-20-2"/><path d="M24 14l5-5M208 14l-5-5"/></g><g id="m11-secondary-hex-button-parchment-typography" data-layer="forest-typography" data-typography-preset="m11-parchment-sage-action" data-semantic-text="required"><path d="M88 41h56" stroke="#EDE3B4" stroke-opacity=".42"/></g><g id="m11-enchanted-forest-secondary-hex-button-content" data-layer="content" data-slot="editable-secondary-hex-button-content" data-safe-x="39" data-safe-y="10" data-safe-width="154" data-safe-height="38"/></g></svg>