<?xml version="1.0" encoding="UTF-8"?><svg xmlns="http://www.w3.org/2000/svg" width="864" height="56" viewBox="0 0 432 28" data-style="frostbound-reward@0.1.0" data-material-pack="frost-crystal-materials@0.1.0"><defs><linearGradient id="progress-fill-432-10-surface" x1="0" y1="0" x2="0" y2="1"><stop offset="0" stop-color="#276A9A"/><stop offset="0.48" stop-color="#123B64"/><stop offset="1" stop-color="#081B35"/></linearGradient><linearGradient id="progress-fill-432-10-primary" x1="0" y1="0" x2="0" y2="1"><stop offset="0" stop-color="#7EDCFF"/><stop offset="0.45" stop-color="#2F9FEF"/><stop offset="1" stop-color="#1763A4"/></linearGradient><pattern id="progress-fill-432-10-grain" width="32" height="32" patternUnits="userSpaceOnUse"><circle cx="4" cy="6" r=".8" fill="#E8FBFF" fill-opacity=".12"/><circle cx="21" cy="14" r=".55" fill="#9DEBFF" fill-opacity=".09"/></pattern><pattern id="progress-fill-432-10-facets" width="48" height="48" patternUnits="userSpaceOnUse"><path d="M0 24L12 12 24 24 36 12 48 24M0 24L12 36 24 24 36 36 48 24M24 0V48" fill="none" stroke="#BCEFFF" stroke-opacity=".13" stroke-width=".8"/></pattern><clipPath id="progress-fill-432-10-clip"><rect x="6" y="6" width="42" height="16" rx="8"/></clipPath></defs><g id="progress-fill-432-10-fill" data-part="fill" clip-path="url(#progress-fill-432-10-clip)"><rect x="6" y="6" width="42" height="16" rx="8" fill="url(#progress-fill-432-10-primary)"/><rect width="432" height="28" fill="url(#progress-fill-432-10-grain)" data-material-source="frost-grain"/><rect width="432" height="28" fill="url(#progress-fill-432-10-facets)" data-material-source="crystal-facet-pattern"/><path d="M12 9H42" stroke="#F0FDFF" stroke-width="2" opacity=".7"/></g></svg>
