<?xml version="1.0" encoding="UTF-8"?><svg xmlns="http://www.w3.org/2000/svg" width="864" height="56" viewBox="0 0 432 28" role="img" aria-label="Frostbound progress 50 percent" data-style="frostbound-reward@0.1.0" data-material-pack="frost-crystal-materials@0.1.0"><defs><linearGradient id="progress-432x28-50-frame-surface" x1="0" y1="0" x2="0" y2="1"><stop offset="0" stop-color="#276A9A"/><stop offset="0.48" stop-color="#123B64"/><stop offset="1" stop-color="#081B35"/></linearGradient><linearGradient id="progress-432x28-50-frame-primary" x1="0" y1="0" x2="0" y2="1"><stop offset="0" stop-color="#7EDCFF"/><stop offset="0.45" stop-color="#2F9FEF"/><stop offset="1" stop-color="#1763A4"/></linearGradient><pattern id="progress-432x28-50-frame-grain" width="32" height="32" patternUnits="userSpaceOnUse"><circle cx="4" cy="6" r=".8" fill="#E8FBFF" fill-opacity=".12"/><circle cx="21" cy="14" r=".55" fill="#9DEBFF" fill-opacity=".09"/></pattern><pattern id="progress-432x28-50-frame-facets" width="48" height="48" patternUnits="userSpaceOnUse"><path d="M0 24L12 12 24 24 36 12 48 24M0 24L12 36 24 24 36 36 48 24M24 0V48" fill="none" stroke="#BCEFFF" stroke-opacity=".13" stroke-width=".8"/></pattern></defs><g id="progress-432x28-50-frame-frame" data-part="frame"><rect x="1" y="1" width="430" height="26" rx="13" fill="#06152B" stroke="#A6E9FF" stroke-width="2"/><rect x="6" y="6" width="420" height="16" rx="8" fill="#0B2745"/></g><defs><linearGradient id="progress-432x28-50-fill-surface" x1="0" y1="0" x2="0" y2="1"><stop offset="0" stop-color="#276A9A"/><stop offset="0.48" stop-color="#123B64"/><stop offset="1" stop-color="#081B35"/></linearGradient><linearGradient id="progress-432x28-50-fill-primary" x1="0" y1="0" x2="0" y2="1"><stop offset="0" stop-color="#7EDCFF"/><stop offset="0.45" stop-color="#2F9FEF"/><stop offset="1" stop-color="#1763A4"/></linearGradient><pattern id="progress-432x28-50-fill-grain" width="32" height="32" patternUnits="userSpaceOnUse"><circle cx="4" cy="6" r=".8" fill="#E8FBFF" fill-opacity=".12"/><circle cx="21" cy="14" r=".55" fill="#9DEBFF" fill-opacity=".09"/></pattern><pattern id="progress-432x28-50-fill-facets" width="48" height="48" patternUnits="userSpaceOnUse"><path d="M0 24L12 12 24 24 36 12 48 24M0 24L12 36 24 24 36 36 48 24M24 0V48" fill="none" stroke="#BCEFFF" stroke-opacity=".13" stroke-width=".8"/></pattern><clipPath id="progress-432x28-50-fill-clip"><rect x="6" y="6" width="210" height="16" rx="8"/></clipPath></defs><g id="progress-432x28-50-fill-fill" data-part="fill" clip-path="url(#progress-432x28-50-fill-clip)"><rect x="6" y="6" width="210" height="16" rx="8" fill="url(#progress-432x28-50-fill-primary)"/><rect width="432" height="28" fill="url(#progress-432x28-50-fill-grain)" data-material-source="frost-grain"/><rect width="432" height="28" fill="url(#progress-432x28-50-fill-facets)" data-material-source="crystal-facet-pattern"/><path d="M12 9H210" stroke="#F0FDFF" stroke-width="2" opacity=".7"/></g></svg>
