<?xml version="1.0" encoding="UTF-8"?><svg xmlns="http://www.w3.org/2000/svg" width="376" height="104" viewBox="0 0 188 52" role="img" aria-label="M7 secondary-hex-button disabled" data-style="m10-volcanic-forge-0.2.0" data-geometry-shape="wide-hexagon" data-corner-radius="2" data-end-cap-depth="23"><defs><linearGradient id="m10-secondary-hex-button-188x52-disabled-plate" x1="0" y1="0" x2="0" y2="1"><stop offset="0" stop-color="#70401C"/><stop offset=".48" stop-color="#29130E"/><stop offset="1" stop-color="#140B09"/></linearGradient><linearGradient id="m10-secondary-hex-button-188x52-disabled-primary" x1="0" y1="0" x2="0" y2="1"><stop offset="0" stop-color="#FFF0C5"/><stop offset=".45" stop-color="#FF6A1F"/><stop offset="1" stop-color="#B34216"/></linearGradient><linearGradient id="m10-secondary-hex-button-188x52-disabled-energy" x1="0" y1="0" x2="1" y2="0"><stop offset="0" stop-color="#FFD07A" stop-opacity="0"/><stop offset=".5" stop-color="#FFD07A" stop-opacity=".86"/><stop offset="1" stop-color="#FFD07A" stop-opacity="0"/></linearGradient><pattern id="m10-secondary-hex-button-188x52-disabled-grain" width="28" height="28" patternUnits="userSpaceOnUse"><circle cx="5" cy="7" r=".6" fill="#FFFFFF" fill-opacity=".12"/><circle cx="20" cy="15" r=".45" fill="#061321" fill-opacity=".2"/></pattern><pattern id="m10-secondary-hex-button-188x52-disabled-plate-pattern" width="44" height="44" patternUnits="userSpaceOnUse"><path d="M0 22H44M22 0V44M0 22L22 0 44 22 22 44Z" fill="none" stroke="#D8FBFF" stroke-opacity=".12" stroke-width=".8"/></pattern><mask id="m10-secondary-hex-button-188x52-disabled-mask"><path d="M25 2H163L186 24L163 46H25L2 24Z" fill="white"/></mask></defs><g opacity="0.48"><g id="m10-secondary-hex-button-188x52-disabled-outer-shadow" data-layer="outer-shadow" transform="translate(0 5)"><path d="M25 2H163L186 24L163 46H25L2 24Z" fill="#020812" opacity=".82"/></g><g id="m10-secondary-hex-button-188x52-disabled-connected-depth" data-layer="connected-depth" transform="translate(0 2.5)"><path d="M25 2H163L186 24L163 46H25L2 24Z" fill="#071522" opacity=".9"/></g><g id="m10-secondary-hex-button-188x52-disabled-outer-frame" data-layer="outer-frame"><path d="M25 2H163L186 24L163 46H25L2 24Z" fill="#071421" stroke="#FFE2A0" stroke-width="2" stroke-linejoin="miter"/></g><g id="m10-secondary-hex-button-188x52-disabled-inner-plate-fill" data-layer="inner-plate-fill"><path d="M25 2H163L186 24L163 46H25L2 24Z" fill="url(#m10-secondary-hex-button-188x52-disabled-plate)"/></g><g id="m10-secondary-hex-button-188x52-disabled-surface-grain" data-layer="surface-grain" data-material-source="m8-ice-grain" mask="url(#m10-secondary-hex-button-188x52-disabled-mask)"><rect width="188" height="52" fill="url(#m10-secondary-hex-button-188x52-disabled-grain)"/></g><g id="m10-secondary-hex-button-188x52-disabled-surface-pattern" data-layer="surface-pattern" data-material-source="m8-crystal-facet-pattern" mask="url(#m10-secondary-hex-button-188x52-disabled-mask)"><rect width="188" height="52" fill="url(#m10-secondary-hex-button-188x52-disabled-plate-pattern)"/></g><g id="m10-secondary-hex-button-188x52-disabled-side-bevel-shade" data-layer="side-bevel-shade" mask="url(#m10-secondary-hex-button-188x52-disabled-mask)"><path d="M25 2H163L186 24L163 46H25L2 24Z" fill="none" stroke="#020812" stroke-opacity=".38" stroke-width="5"/></g><g id="m10-secondary-hex-button-188x52-disabled-top-bevel-highlight" data-layer="top-bevel-highlight" mask="url(#m10-secondary-hex-button-188x52-disabled-mask)"><path d="M33 8H155" stroke="#FFFFFF" stroke-opacity=".55" stroke-width="3" stroke-linecap="square"/></g><g id="m10-secondary-hex-button-188x52-disabled-cold-edge-accent" data-layer="cold-edge-accent" data-material-source="m8-cold-edge-accent" mask="url(#m10-secondary-hex-button-188x52-disabled-mask)"><rect x="23" y="6" width="142" height="8" fill="url(#m10-secondary-hex-button-188x52-disabled-energy)"/></g><g id="m10-secondary-hex-button-188x52-disabled-ornament-decal" data-layer="ornament-decal" data-material-source="m7-ornament-marks" mask="url(#m10-secondary-hex-button-188x52-disabled-mask)"><path d="M31 39h16M141 39h16" stroke="#E6FCFF" stroke-opacity=".5" stroke-width="2"/></g><g id="m10-secondary-hex-button-forged-rivets" data-layer="forge-ornament" data-ornament="rivet-rune" fill="#D7943A" stroke="#271108" stroke-width="1"><circle cx="14" cy="14" r="3"/><circle cx="174" cy="14" r="3"/><circle cx="14" cy="38" r="3"/><circle cx="174" cy="38" r="3"/></g><g id="m10-secondary-hex-button-engraved-typography" data-layer="forge-typography" data-typography-preset="m10-engraved-gold-action"><path d="M64 38h60" stroke="#FFD27A" stroke-opacity=".42"/><path d="M74 42h40" stroke="#5A250F"/></g><g id="m10-secondary-hex-button-content" data-layer="content" data-slot="editable-secondary-hex-button-content" data-safe-x="37" data-safe-y="8" data-safe-width="114" data-safe-height="34"/></g></svg>