<?xml version="1.0" encoding="UTF-8"?><svg xmlns="http://www.w3.org/2000/svg" width="464" height="112" viewBox="0 0 232 56" role="img" aria-label="M7 secondary-hex-button normal" data-style="m10-volcanic-forge@0.2.0" data-geometry-shape="wide-hexagon" data-corner-radius="2" data-end-cap-depth="25"><defs><linearGradient id="m10-secondary-hex-button-232x56-normal-plate" x1="0" y1="0" x2="0" y2="1"><stop offset="0" stop-color="#70401C"/><stop offset=".48" stop-color="#29130E"/><stop offset="1" stop-color="#140B09"/></linearGradient><linearGradient id="m10-secondary-hex-button-232x56-normal-primary" x1="0" y1="0" x2="0" y2="1"><stop offset="0" stop-color="#FFF0C5"/><stop offset=".45" stop-color="#FF6A1F"/><stop offset="1" stop-color="#B34216"/></linearGradient><linearGradient id="m10-secondary-hex-button-232x56-normal-energy" x1="0" y1="0" x2="1" y2="0"><stop offset="0" stop-color="#FFD07A" stop-opacity="0"/><stop offset=".5" stop-color="#FFD07A" stop-opacity=".86"/><stop offset="1" stop-color="#FFD07A" stop-opacity="0"/></linearGradient><pattern id="m10-secondary-hex-button-232x56-normal-grain" width="28" height="28" patternUnits="userSpaceOnUse"><circle cx="5" cy="7" r=".6" fill="#FFFFFF" fill-opacity=".12"/><circle cx="20" cy="15" r=".45" fill="#061321" fill-opacity=".2"/></pattern><pattern id="m10-secondary-hex-button-232x56-normal-plate-pattern" width="44" height="44" patternUnits="userSpaceOnUse"><path d="M0 22H44M22 0V44M0 22L22 0 44 22 22 44Z" fill="none" stroke="#D8FBFF" stroke-opacity=".12" stroke-width=".8"/></pattern><mask id="m10-secondary-hex-button-232x56-normal-mask"><path d="M27 2H205L230 26L205 50H27L2 26Z" fill="white"/></mask></defs><g opacity="1"><g id="m10-secondary-hex-button-232x56-normal-outer-shadow" data-layer="outer-shadow" transform="translate(0 5)"><path d="M27 2H205L230 26L205 50H27L2 26Z" fill="#020812" opacity=".82"/></g><g id="m10-secondary-hex-button-232x56-normal-connected-depth" data-layer="connected-depth" transform="translate(0 2.5)"><path d="M27 2H205L230 26L205 50H27L2 26Z" fill="#071522" opacity=".9"/></g><g id="m10-secondary-hex-button-232x56-normal-outer-frame" data-layer="outer-frame"><path d="M27 2H205L230 26L205 50H27L2 26Z" fill="#071421" stroke="#FFE2A0" stroke-width="2" stroke-linejoin="miter"/></g><g id="m10-secondary-hex-button-232x56-normal-inner-plate-fill" data-layer="inner-plate-fill"><path d="M27 2H205L230 26L205 50H27L2 26Z" fill="url(#m10-secondary-hex-button-232x56-normal-plate)"/></g><g id="m10-secondary-hex-button-232x56-normal-surface-grain" data-layer="surface-grain" data-material-source="m8-ice-grain" mask="url(#m10-secondary-hex-button-232x56-normal-mask)"><rect width="232" height="56" fill="url(#m10-secondary-hex-button-232x56-normal-grain)"/></g><g id="m10-secondary-hex-button-232x56-normal-surface-pattern" data-layer="surface-pattern" data-material-source="m8-crystal-facet-pattern" mask="url(#m10-secondary-hex-button-232x56-normal-mask)"><rect width="232" height="56" fill="url(#m10-secondary-hex-button-232x56-normal-plate-pattern)"/></g><g id="m10-secondary-hex-button-232x56-normal-side-bevel-shade" data-layer="side-bevel-shade" mask="url(#m10-secondary-hex-button-232x56-normal-mask)"><path d="M27 2H205L230 26L205 50H27L2 26Z" fill="none" stroke="#020812" stroke-opacity=".38" stroke-width="5"/></g><g id="m10-secondary-hex-button-232x56-normal-top-bevel-highlight" data-layer="top-bevel-highlight" mask="url(#m10-secondary-hex-button-232x56-normal-mask)"><path d="M35 8H197" stroke="#FFFFFF" stroke-opacity=".55" stroke-width="3" stroke-linecap="square"/></g><g id="m10-secondary-hex-button-232x56-normal-cold-edge-accent" data-layer="cold-edge-accent" data-material-source="m8-cold-edge-accent" mask="url(#m10-secondary-hex-button-232x56-normal-mask)"><rect x="25" y="6" width="182" height="8" fill="url(#m10-secondary-hex-button-232x56-normal-energy)"/></g><g id="m10-secondary-hex-button-232x56-normal-ornament-decal" data-layer="ornament-decal" data-material-source="m7-ornament-marks" mask="url(#m10-secondary-hex-button-232x56-normal-mask)"><path d="M33 43h16M183 43h16" stroke="#E6FCFF" stroke-opacity=".5" stroke-width="2"/></g><g id="m10-secondary-hex-button-variation" data-layer="forge-variation" data-variation-seed="39211" data-variation-baseline="false" fill="#FFD07A" fill-opacity=".16"><circle cx="85.73" cy="29.75" r="1.2"/><circle cx="192.97" cy="26.09" r="1.2"/><circle cx="20.55" cy="32.45" r="1.2"/><circle cx="107.38" cy="38.37" r="1.2"/></g><g id="m10-secondary-hex-button-forged-rivets" data-layer="forge-ornament" data-ornament="rivet-rune" fill="#D7943A" stroke="#271108" stroke-width="1"><circle cx="14" cy="14" r="3"/><circle cx="218" cy="14" r="3"/><circle cx="14" cy="42" r="3"/><circle cx="218" cy="42" r="3"/></g><g id="m10-secondary-hex-button-engraved-typography" data-layer="forge-typography" data-typography-preset="m10-engraved-gold-action"><path d="M86 40h60" stroke="#FFD27A" stroke-opacity=".42"/><path d="M96 44h40" stroke="#5A250F"/></g><g id="m10-volcanic-forge-secondary-hex-button-content" data-layer="content" data-slot="editable-secondary-hex-button-content" data-safe-x="39" data-safe-y="8" data-safe-width="154" data-safe-height="38"/></g></svg>