<svg xmlns="http://www.w3.org/2000/svg" width="1080" height="480" viewBox="0 0 540 240" role="img" aria-label="Enchanted Forest focal and ornament isolates" data-evidence="m11-a3-focal-ornament-isolates" data-derived-from="renderM11LivingFocalSvg"><rect width="540" height="240" fill="#071329"/><g id="m11-icon-container-luminous-seed" data-layer="luminous-seed-focal" data-focal="m11-luminous-seed" data-halo-opacity=".40" data-halo-extent-ratio=".12"><circle cx="135" cy="92" r="54" fill="#65D5A4" fill-opacity=".28"/><circle cx="135" cy="92" r="36.720000000000006" fill="none" stroke="#66D9B2" stroke-width="2" stroke-opacity=".34"/><path d="M135 49.879999999999995C161.1144 75.9944 161.1144 109.6904 135 134.12C108.8856 109.6904 108.8856 75.9944 135 49.879999999999995Z" fill="#294B38" stroke="#B9D995" stroke-width="2.4"/><path d="M135 61.67359999999999V119.7992M135 85.682q9.401184-7.581600000000001 15.146352-20.2176M135 97.0544q-9.401184-5.896800000000002-15.146352-18.111600000000003" fill="none" stroke="#8CCB7A" stroke-width="1.6"/><ellipse cx="135" cy="92" rx="6.528600000000001" ry="13.478400000000002" fill="#B8F0B2" fill-opacity=".84"/></g><g id="m11-icon-container-seed-support" data-layer="forest-focal-support" data-focal-depth="woven-root-cradle" fill="none" stroke="#6E8C5D" stroke-width="2.2"><path d="M96.12 122.3264Q135 155.72 173.88 122.3264"/><path d="M105.84 116.4296Q135 140.6 164.16 116.4296" stroke="#A0B96F" stroke-opacity=".75"/></g><g id="m11-icon-container-seed-roots" data-layer="forest-focal-roots" data-focal-depth="seed-support-roots" fill="none" stroke="#89AE63" stroke-opacity=".82" stroke-width="1.8"><path d="M124.031952 118.1144Q116.1 154.1 76.67999999999999 161.12M145.968048 118.1144Q153.9 154.1 193.32 161.12M131.866272 125.696Q130.68 164.36 103.68 179.48000000000002M138.133728 125.696Q139.32 164.36 166.32 179.48000000000002"/><path data-layer="forest-focal-light-interaction" d="M109.08 150.32Q89.64 161.12 68.04 155.72M160.92 150.32Q180.36 161.12 201.95999999999998 155.72" stroke="#66D9B2" stroke-opacity=".45"/></g><g transform="translate(355 104)" fill="none" stroke="#76B86D" stroke-width="4"><path d="M-82 28C-48-18-10-18 20 16M18 16C45-20 72-16 92 22"/><path d="M-42-2l14-12M42-1l14-12"/></g><g font-family="system-ui" font-size="15" font-weight="800" fill="#F1E8C8"><text x="135" y="218" text-anchor="middle">LUMINOUS SEED + ROOTS</text><text x="355" y="218" text-anchor="middle">LEAF / VINE ORNAMENT</text></g></svg>