<?xml version="1.0" encoding="UTF-8"?><svg xmlns="http://www.w3.org/2000/svg" width="296" height="104" viewBox="0 0 148 52" role="img" aria-label="M7 tab normal" data-style="m9-frostbound-production-fidelity@0.1.0" data-geometry-shape="chamfered-angular" data-corner-radius="2" data-end-cap-depth="17"><defs><linearGradient id="m9-tab-148x52-normal-plate" x1="0" y1="0" x2="0" y2="1"><stop offset="0" stop-color="#315C7A"/><stop offset=".48" stop-color="#112A46"/><stop offset="1" stop-color="#071329"/></linearGradient><linearGradient id="m9-tab-148x52-normal-primary" x1="0" y1="0" x2="0" y2="1"><stop offset="0" stop-color="#E6FBFF"/><stop offset=".45" stop-color="#63CFF3"/><stop offset="1" stop-color="#1A6592"/></linearGradient><linearGradient id="m9-tab-148x52-normal-energy" x1="0" y1="0" x2="1" y2="0"><stop offset="0" stop-color="#9FEFFF" stop-opacity="0"/><stop offset=".5" stop-color="#9FEFFF" stop-opacity=".86"/><stop offset="1" stop-color="#9FEFFF" stop-opacity="0"/></linearGradient><pattern id="m9-tab-148x52-normal-grain" width="28" height="28" patternUnits="userSpaceOnUse"><circle cx="5" cy="7" r=".6" fill="#FFFFFF" fill-opacity=".12"/><circle cx="20" cy="15" r=".45" fill="#061321" fill-opacity=".2"/></pattern><pattern id="m9-tab-148x52-normal-plate-pattern" width="44" height="44" patternUnits="userSpaceOnUse"><path d="M0 22H44M22 0V44M0 22L22 0 44 22 22 44Z" fill="none" stroke="#D8FBFF" stroke-opacity=".12" stroke-width=".8"/></pattern><mask id="m9-tab-148x52-normal-mask"><path d="M19 2H129L146 19V29L129 46H19L2 29V19Z" fill="white"/></mask></defs><g opacity="1"><g id="m9-tab-148x52-normal-outer-shadow" data-layer="outer-shadow" transform="translate(0 5)"><path d="M19 2H129L146 19V29L129 46H19L2 29V19Z" fill="#020812" opacity=".82"/></g><g id="m9-tab-148x52-normal-connected-depth" data-layer="connected-depth" transform="translate(0 2.5)"><path d="M19 2H129L146 19V29L129 46H19L2 29V19Z" fill="#071522" opacity=".9"/></g><g id="m9-tab-148x52-normal-outer-frame-m9-edge-stack" data-edge-stack="m9-ice-heavy" data-edge-stack-version="1.0.0"><g id="m9-tab-148x52-normal-outer-frame-m9-outer-shadow" data-layer="outer-shadow" data-edge-stack-layer="outer-shadow" data-order="0" data-inset="0" data-thickness="4"><path d="M19 2H129L146 19V29L129 46H19L2 29V19Z" fill="none" stroke="#020812" stroke-width="4" stroke-opacity="0.72" stroke-linejoin="miter"/></g><g id="m9-tab-148x52-normal-outer-frame-m9-structural-silhouette" data-layer="structural-silhouette" data-edge-stack-layer="structural-silhouette" data-order="1" data-inset="1" data-thickness="3"><path d="M19 2H129L146 19V29L129 46H19L2 29V19Z" transform="translate(1 1) scale(0.9864864864864865 0.9615384615384616)" fill="none" stroke="#102A45" stroke-width="3" stroke-opacity="1" stroke-linejoin="miter"/></g><g id="m9-tab-148x52-normal-outer-frame-m9-dark-bevel" data-layer="dark-bevel" data-edge-stack-layer="dark-bevel" data-order="2" data-inset="3" data-thickness="2"><path d="M19 2H129L146 19V29L129 46H19L2 29V19Z" transform="translate(3 3) scale(0.9594594594594594 0.8846153846153846)" fill="none" stroke="#174B70" stroke-width="2" stroke-opacity="0.88" stroke-linejoin="miter"/></g><g id="m9-tab-148x52-normal-outer-frame-m9-bright-bevel" data-layer="bright-bevel" data-edge-stack-layer="bright-bevel" data-order="3" data-inset="5" data-thickness="2"><path d="M19 2H129L146 19V29L129 46H19L2 29V19Z" transform="translate(5 5) scale(0.9324324324324325 0.8076923076923077)" fill="none" stroke="#B9F7FF" stroke-width="2" stroke-opacity="0.92" stroke-linejoin="miter"/></g><g id="m9-tab-148x52-normal-outer-frame-m9-inner-rim" data-layer="inner-rim" data-edge-stack-layer="inner-rim" data-order="4" data-inset="8" data-thickness="1"><path d="M19 2H129L146 19V29L129 46H19L2 29V19Z" transform="translate(8 8) scale(0.8918918918918919 0.6923076923076923)" fill="none" stroke="#63CFF3" stroke-width="1" stroke-opacity="0.64" stroke-linejoin="miter"/></g></g><g id="m9-tab-148x52-normal-outer-frame-m9-material-responses" data-material-responses="m9-frostbound-material-responses@1.0.0"><g id="m9-tab-148x52-normal-outer-frame-m9-structural-edge-edge" data-material-region="structural-edge" data-material-response="m9-clear-ice" data-material-channel="edge" data-material-source="m8-cold-edge-accent"><path d="M19 2H129L146 19V29L129 46H19L2 29V19Z" fill="none" fill-opacity="0" stroke="#B9F7FF" stroke-opacity="0.9" stroke-width="1.5"/></g><g id="m9-tab-148x52-normal-outer-frame-m9-content-surface-base" data-material-region="content-surface" data-material-response="m9-dark-substrate" data-material-channel="base"><path d="M19 2H129L146 19V29L129 46H19L2 29V19Z" fill="#071329" fill-opacity="1" stroke="none" stroke-opacity="0" stroke-width="0"/></g><g id="m9-tab-148x52-normal-outer-frame-m9-content-surface-highlight" data-material-region="content-surface" data-material-response="m9-dark-substrate" data-material-channel="highlight"><path d="M19 2H129L146 19V29L129 46H19L2 29V19Z" fill="none" fill-opacity="0" stroke="#9FEFFF" stroke-opacity="0.24" stroke-width="1.5"/></g><g id="m9-tab-148x52-normal-outer-frame-m9-content-surface-glow" data-material-region="content-surface" data-material-response="m9-dark-substrate" data-material-channel="glow"><path d="M19 2H129L146 19V29L129 46H19L2 29V19Z" fill="none" fill-opacity="0" stroke="#63CFF3" stroke-opacity="0.16" stroke-width="1.5"/></g><g id="m9-tab-148x52-normal-outer-frame-m9-content-surface-surface" data-material-region="content-surface" data-material-response="m9-dark-substrate" data-material-channel="surface" data-material-source="m8-ice-grain"><path d="M19 2H129L146 19V29L129 46H19L2 29V19Z" fill="#B9F7FF" fill-opacity="0.06" stroke="none" stroke-opacity="0" stroke-width="0"/></g><g id="m9-tab-148x52-normal-outer-frame-m9-variation" data-variation-region="content-surface" data-variation-preset="m9-frostbound-surface-variation@1.0.0" data-variation-seed="19" data-variation-frost="0.34" data-variation-scratch="0.12"><rect x="10" y="8" width="128" height="36" fill="#E6FBFF" fill-opacity="0.041"/><path d="M12 29.120000000000005l21.080000000000002 4.6592" stroke="#D7FBFF" stroke-opacity="0.077"/><circle cx="86.03" cy="30.76" r="0.72" fill="#D9FFFF" fill-opacity="0.099"/><circle cx="66.78" cy="22.75" r="0.72" fill="#D9FFFF" fill-opacity="0.099"/><circle cx="29.36" cy="20.83" r="0.72" fill="#D9FFFF" fill-opacity="0.099"/><circle cx="55.40" cy="12.38" r="0.72" fill="#D9FFFF" fill-opacity="0.099"/><circle cx="12.28" cy="24.42" r="0.72" fill="#D9FFFF" fill-opacity="0.099"/><circle cx="82.41" cy="30.31" r="0.72" fill="#D9FFFF" fill-opacity="0.099"/><circle cx="13.00" cy="34.34" r="0.72" fill="#D9FFFF" fill-opacity="0.099"/><circle cx="71.77" cy="22.86" r="0.72" fill="#D9FFFF" fill-opacity="0.099"/><circle cx="102.09" cy="28.22" r="0.72" fill="#D9FFFF" fill-opacity="0.099"/><circle cx="83.69" cy="41.81" r="0.72" fill="#D9FFFF" fill-opacity="0.099"/><circle cx="65.84" cy="32.69" r="0.72" fill="#D9FFFF" fill-opacity="0.099"/><circle cx="23.49" cy="27.50" r="0.72" fill="#D9FFFF" fill-opacity="0.099"/></g></g><g id="m9-tab-148x52-normal-outer-frame-m9-lighting" data-lighting-model="m9-cold-top-rim@1.0.0" data-light-direction="top"><path d="M8 8H140" stroke="#E6FBFF" stroke-opacity="0.72"/><ellipse cx="74" cy="26" rx="44.4" ry="10.4" fill="#63CFF3" fill-opacity="0.28"/></g><g id="m9-tab-148x52-normal-outer-frame-m9-ornaments" data-ornament-layer="independent"></g><g id="m9-tab-148x52-normal-inner-plate-fill" data-layer="inner-plate-fill"><path d="M19 2H129L146 19V29L129 46H19L2 29V19Z" fill="url(#m9-tab-148x52-normal-plate)"/></g><g id="m9-tab-148x52-normal-surface-grain" data-layer="surface-grain" data-material-source="m8-ice-grain" mask="url(#m9-tab-148x52-normal-mask)"><rect width="148" height="52" fill="url(#m9-tab-148x52-normal-grain)"/></g><g id="m9-tab-148x52-normal-surface-pattern" data-layer="surface-pattern" data-material-source="m8-crystal-facet-pattern" mask="url(#m9-tab-148x52-normal-mask)"><rect width="148" height="52" fill="url(#m9-tab-148x52-normal-plate-pattern)"/></g><g id="m9-tab-148x52-normal-side-bevel-shade" data-layer="side-bevel-shade" mask="url(#m9-tab-148x52-normal-mask)"><path d="M19 2H129L146 19V29L129 46H19L2 29V19Z" fill="none" stroke="#020812" stroke-opacity=".38" stroke-width="5"/></g><g id="m9-tab-148x52-normal-top-bevel-highlight" data-layer="top-bevel-highlight" mask="url(#m9-tab-148x52-normal-mask)"><path d="M27 8H121" stroke="#FFFFFF" stroke-opacity=".55" stroke-width="3" stroke-linecap="square"/></g><g id="m9-tab-148x52-normal-cold-edge-accent" data-layer="cold-edge-accent" data-material-source="m8-cold-edge-accent" mask="url(#m9-tab-148x52-normal-mask)"><rect x="17" y="6" width="114" height="8" fill="url(#m9-tab-148x52-normal-energy)"/></g><g id="m9-tab-148x52-normal-ornament-decal" data-layer="ornament-decal" data-material-source="m7-ornament-marks" mask="url(#m9-tab-148x52-normal-mask)"><path d="M25 39h16M107 39h16" stroke="#E6FCFF" stroke-opacity=".5" stroke-width="2"/></g><g id="m9-tab-148x52-normal-content" data-layer="content" data-slot="editable-tab-content" data-safe-x="31" data-safe-y="8" data-safe-width="86" data-safe-height="34"/></g></svg>
