<?xml version="1.0" encoding="UTF-8"?><svg xmlns="http://www.w3.org/2000/svg" width="464" height="112" viewBox="0 0 232 56" role="img" aria-label="M7 secondary-hex-button disabled" data-style="m9-frostbound-production-fidelity@0.1.0" data-geometry-shape="wide-hexagon" data-corner-radius="2" data-end-cap-depth="25"><defs><linearGradient id="m9-secondary-hex-button-232x56-disabled-plate" x1="0" y1="0" x2="0" y2="1"><stop offset="0" stop-color="#315C7A"/><stop offset=".48" stop-color="#112A46"/><stop offset="1" stop-color="#071329"/></linearGradient><linearGradient id="m9-secondary-hex-button-232x56-disabled-primary" x1="0" y1="0" x2="0" y2="1"><stop offset="0" stop-color="#E6FBFF"/><stop offset=".45" stop-color="#63CFF3"/><stop offset="1" stop-color="#1A6592"/></linearGradient><linearGradient id="m9-secondary-hex-button-232x56-disabled-energy" x1="0" y1="0" x2="1" y2="0"><stop offset="0" stop-color="#9FEFFF" stop-opacity="0"/><stop offset=".5" stop-color="#9FEFFF" stop-opacity=".86"/><stop offset="1" stop-color="#9FEFFF" stop-opacity="0"/></linearGradient><pattern id="m9-secondary-hex-button-232x56-disabled-grain" width="28" height="28" patternUnits="userSpaceOnUse"><circle cx="5" cy="7" r=".6" fill="#FFFFFF" fill-opacity=".12"/><circle cx="20" cy="15" r=".45" fill="#061321" fill-opacity=".2"/></pattern><pattern id="m9-secondary-hex-button-232x56-disabled-plate-pattern" width="44" height="44" patternUnits="userSpaceOnUse"><path d="M0 22H44M22 0V44M0 22L22 0 44 22 22 44Z" fill="none" stroke="#D8FBFF" stroke-opacity=".12" stroke-width=".8"/></pattern><mask id="m9-secondary-hex-button-232x56-disabled-mask"><path d="M27 2H205L230 26L205 50H27L2 26Z" fill="white"/></mask></defs><g opacity="0.48"><g id="m9-secondary-hex-button-232x56-disabled-outer-shadow" data-layer="outer-shadow" transform="translate(0 5)"><path d="M27 2H205L230 26L205 50H27L2 26Z" fill="#020812" opacity=".82"/></g><g id="m9-secondary-hex-button-232x56-disabled-connected-depth" data-layer="connected-depth" transform="translate(0 2.5)"><path d="M27 2H205L230 26L205 50H27L2 26Z" fill="#071522" opacity=".9"/></g><g id="m9-secondary-hex-button-232x56-disabled-outer-frame-m9-edge-stack" data-edge-stack="m9-ice-heavy" data-edge-stack-version="1.0.0"><g id="m9-secondary-hex-button-232x56-disabled-outer-frame-m9-outer-shadow" data-layer="outer-shadow" data-edge-stack-layer="outer-shadow" data-order="0" data-inset="0" data-thickness="4"><path d="M27 2H205L230 26L205 50H27L2 26Z" fill="none" stroke="#020812" stroke-width="4" stroke-opacity="0.72" stroke-linejoin="miter"/></g><g id="m9-secondary-hex-button-232x56-disabled-outer-frame-m9-structural-silhouette" data-layer="structural-silhouette" data-edge-stack-layer="structural-silhouette" data-order="1" data-inset="1" data-thickness="3"><path d="M27 2H205L230 26L205 50H27L2 26Z" transform="translate(1 1) scale(0.9913793103448276 0.9642857142857143)" fill="none" stroke="#102A45" stroke-width="3" stroke-opacity="1" stroke-linejoin="miter"/></g><g id="m9-secondary-hex-button-232x56-disabled-outer-frame-m9-dark-bevel" data-layer="dark-bevel" data-edge-stack-layer="dark-bevel" data-order="2" data-inset="3" data-thickness="2"><path d="M27 2H205L230 26L205 50H27L2 26Z" transform="translate(3 3) scale(0.9741379310344828 0.8928571428571429)" fill="none" stroke="#174B70" stroke-width="2" stroke-opacity="0.88" stroke-linejoin="miter"/></g><g id="m9-secondary-hex-button-232x56-disabled-outer-frame-m9-bright-bevel" data-layer="bright-bevel" data-edge-stack-layer="bright-bevel" data-order="3" data-inset="5" data-thickness="2"><path d="M27 2H205L230 26L205 50H27L2 26Z" transform="translate(5 5) scale(0.9568965517241379 0.8214285714285714)" fill="none" stroke="#B9F7FF" stroke-width="2" stroke-opacity="0.92" stroke-linejoin="miter"/></g><g id="m9-secondary-hex-button-232x56-disabled-outer-frame-m9-inner-rim" data-layer="inner-rim" data-edge-stack-layer="inner-rim" data-order="4" data-inset="8" data-thickness="1"><path d="M27 2H205L230 26L205 50H27L2 26Z" transform="translate(8 8) scale(0.9310344827586207 0.7142857142857143)" fill="none" stroke="#63CFF3" stroke-width="1" stroke-opacity="0.64" stroke-linejoin="miter"/></g></g><g id="m9-secondary-hex-button-232x56-disabled-outer-frame-m9-material-responses" data-material-responses="m9-frostbound-material-responses@1.0.0"><g id="m9-secondary-hex-button-232x56-disabled-outer-frame-m9-structural-edge-edge" data-material-region="structural-edge" data-material-response="m9-clear-ice" data-material-channel="edge" data-material-source="m8-cold-edge-accent"><path d="M27 2H205L230 26L205 50H27L2 26Z" fill="none" fill-opacity="0" stroke="#B9F7FF" stroke-opacity="0.9" stroke-width="1.5"/></g><g id="m9-secondary-hex-button-232x56-disabled-outer-frame-m9-content-surface-base" data-material-region="content-surface" data-material-response="m9-dark-substrate" data-material-channel="base"><path d="M27 2H205L230 26L205 50H27L2 26Z" fill="#071329" fill-opacity="1" stroke="none" stroke-opacity="0" stroke-width="0"/></g><g id="m9-secondary-hex-button-232x56-disabled-outer-frame-m9-content-surface-highlight" data-material-region="content-surface" data-material-response="m9-dark-substrate" data-material-channel="highlight"><path d="M27 2H205L230 26L205 50H27L2 26Z" fill="none" fill-opacity="0" stroke="#9FEFFF" stroke-opacity="0.24" stroke-width="1.5"/></g><g id="m9-secondary-hex-button-232x56-disabled-outer-frame-m9-content-surface-glow" data-material-region="content-surface" data-material-response="m9-dark-substrate" data-material-channel="glow"><path d="M27 2H205L230 26L205 50H27L2 26Z" fill="none" fill-opacity="0" stroke="#63CFF3" stroke-opacity="0.16" stroke-width="1.5"/></g><g id="m9-secondary-hex-button-232x56-disabled-outer-frame-m9-content-surface-surface" data-material-region="content-surface" data-material-response="m9-dark-substrate" data-material-channel="surface" data-material-source="m8-ice-grain"><path d="M27 2H205L230 26L205 50H27L2 26Z" fill="#B9F7FF" fill-opacity="0.06" stroke="none" stroke-opacity="0" stroke-width="0"/></g><g id="m9-secondary-hex-button-232x56-disabled-outer-frame-m9-variation" data-variation-region="content-surface" data-variation-preset="m9-frostbound-surface-variation@1.0.0" data-variation-seed="19" data-variation-frost="0.34" data-variation-scratch="0.12"><rect x="10" y="8" width="212" height="40" fill="#E6FBFF" fill-opacity="0.041"/><path d="M12 31.360000000000003l35.36 5.0176" stroke="#D7FBFF" stroke-opacity="0.077"/><circle cx="136.18" cy="33.36" r="0.72" fill="#D9FFFF" fill-opacity="0.099"/><circle cx="103.89" cy="24.34" r="0.72" fill="#D9FFFF" fill-opacity="0.099"/><circle cx="41.13" cy="22.18" r="0.72" fill="#D9FFFF" fill-opacity="0.099"/><circle cx="84.80" cy="12.67" r="0.72" fill="#D9FFFF" fill-opacity="0.099"/><circle cx="12.47" cy="26.23" r="0.72" fill="#D9FFFF" fill-opacity="0.099"/><circle cx="130.10" cy="32.85" r="0.72" fill="#D9FFFF" fill-opacity="0.099"/><circle cx="13.67" cy="37.38" r="0.72" fill="#D9FFFF" fill-opacity="0.099"/><circle cx="112.26" cy="24.47" r="0.72" fill="#D9FFFF" fill-opacity="0.099"/><circle cx="163.12" cy="30.50" r="0.72" fill="#D9FFFF" fill-opacity="0.099"/><circle cx="132.26" cy="45.79" r="0.72" fill="#D9FFFF" fill-opacity="0.099"/><circle cx="102.30" cy="35.53" r="0.72" fill="#D9FFFF" fill-opacity="0.099"/><circle cx="31.28" cy="29.69" r="0.72" fill="#D9FFFF" fill-opacity="0.099"/></g></g><g id="m9-secondary-hex-button-232x56-disabled-outer-frame-m9-ornaments" data-ornament-layer="independent"></g><g id="m9-secondary-hex-button-232x56-disabled-inner-plate-fill" data-layer="inner-plate-fill"><path d="M27 2H205L230 26L205 50H27L2 26Z" fill="url(#m9-secondary-hex-button-232x56-disabled-plate)"/></g><g id="m9-secondary-hex-button-232x56-disabled-surface-grain" data-layer="surface-grain" data-material-source="m8-ice-grain" mask="url(#m9-secondary-hex-button-232x56-disabled-mask)"><rect width="232" height="56" fill="url(#m9-secondary-hex-button-232x56-disabled-grain)"/></g><g id="m9-secondary-hex-button-232x56-disabled-surface-pattern" data-layer="surface-pattern" data-material-source="m8-crystal-facet-pattern" mask="url(#m9-secondary-hex-button-232x56-disabled-mask)"><rect width="232" height="56" fill="url(#m9-secondary-hex-button-232x56-disabled-plate-pattern)"/></g><g id="m9-secondary-hex-button-232x56-disabled-side-bevel-shade" data-layer="side-bevel-shade" mask="url(#m9-secondary-hex-button-232x56-disabled-mask)"><path d="M27 2H205L230 26L205 50H27L2 26Z" fill="none" stroke="#020812" stroke-opacity=".38" stroke-width="5"/></g><g id="m9-secondary-hex-button-232x56-disabled-top-bevel-highlight" data-layer="top-bevel-highlight" mask="url(#m9-secondary-hex-button-232x56-disabled-mask)"><path d="M35 8H197" stroke="#FFFFFF" stroke-opacity=".55" stroke-width="3" stroke-linecap="square"/></g><g id="m9-secondary-hex-button-232x56-disabled-cold-edge-accent" data-layer="cold-edge-accent" data-material-source="m8-cold-edge-accent" mask="url(#m9-secondary-hex-button-232x56-disabled-mask)"><rect x="25" y="6" width="182" height="8" fill="url(#m9-secondary-hex-button-232x56-disabled-energy)"/></g><g id="m9-secondary-hex-button-232x56-disabled-ornament-decal" data-layer="ornament-decal" data-material-source="m7-ornament-marks" mask="url(#m9-secondary-hex-button-232x56-disabled-mask)"><path d="M33 43h16M183 43h16" stroke="#E6FCFF" stroke-opacity=".5" stroke-width="2"/></g><g id="m9-secondary-hex-button-232x56-disabled-content" data-layer="content" data-slot="editable-secondary-hex-button-content" data-safe-x="39" data-safe-y="8" data-safe-width="154" data-safe-height="38"/></g><g id="m9-secondary-hex-button-232x56-disabled-outer-frame-m9-lighting" data-lighting-model="m9-cold-top-rim@1.0.0" data-light-direction="top"><path d="M8 8H224" stroke="#E6FBFF" stroke-opacity="0.72"/><ellipse cx="116" cy="10.08" rx="27.84" ry="2.24" fill="#63CFF3" fill-opacity="0.28"/></g><g id="m9-secondary-hex-button-232x56-disabled-outer-frame-m9-typography" data-typography-preset="m9-frostbound-action@1.0.0" data-width-fit="18.00" data-state="disabled" transform="translate(0 0)" opacity="0.45"><text x="116" y="28" text-anchor="middle" dominant-baseline="middle" font-size="18.00" fill="#E6FBFF" stroke="#071329" stroke-width="1" data-typography-layer="face">CONTINUE</text><text x="116" y="27" text-anchor="middle" dominant-baseline="middle" font-size="18.00" fill="none" stroke="#FFFFFF" stroke-opacity=".35" data-typography-layer="bevel"/></g></svg>
