<?xml version="1.0" encoding="UTF-8"?><svg xmlns="http://www.w3.org/2000/svg" width="640" height="136" viewBox="0 0 320 68" role="img" aria-label="M7 primary-hex-button pressed" data-style="m11-enchanted-forest@0.1.0" data-geometry-shape="wide-hexagon" data-corner-radius="2" data-end-cap-depth="34"><defs><linearGradient id="m11-primary-hex-button-320x68-pressed-plate" x1="0" y1="0" x2="0" y2="1"><stop offset="0" stop-color="#5C7650"/><stop offset=".48" stop-color="#20382B"/><stop offset="1" stop-color="#13251E"/></linearGradient><linearGradient id="m11-primary-hex-button-320x68-pressed-primary" x1="0" y1="0" x2="0" y2="1"><stop offset="0" stop-color="#F1E8C8"/><stop offset=".45" stop-color="#66D9B2"/><stop offset="1" stop-color="#2A856F"/></linearGradient><linearGradient id="m11-primary-hex-button-320x68-pressed-energy" x1="0" y1="0" x2="1" y2="0"><stop offset="0" stop-color="#B8E0A5" stop-opacity="0"/><stop offset=".5" stop-color="#B8E0A5" stop-opacity=".86"/><stop offset="1" stop-color="#B8E0A5" stop-opacity="0"/></linearGradient><pattern id="m11-primary-hex-button-320x68-pressed-grain" width="28" height="28" patternUnits="userSpaceOnUse"><circle cx="5" cy="7" r=".6" fill="#FFFFFF" fill-opacity=".12"/><circle cx="20" cy="15" r=".45" fill="#061321" fill-opacity=".2"/></pattern><pattern id="m11-primary-hex-button-320x68-pressed-plate-pattern" width="44" height="44" patternUnits="userSpaceOnUse"><path d="M0 22H44M22 0V44M0 22L22 0 44 22 22 44Z" fill="none" stroke="#D8FBFF" stroke-opacity=".12" stroke-width=".8"/></pattern><mask id="m11-primary-hex-button-320x68-pressed-mask"><path d="M36 4H284L318 34L284 64H36L2 34Z" fill="white"/></mask></defs><g opacity="1"><g id="m11-primary-hex-button-320x68-pressed-outer-shadow" data-layer="outer-shadow" transform="translate(0 2)"><path d="M36 4H284L318 34L284 64H36L2 34Z" fill="#020812" opacity=".82"/></g><g id="m11-primary-hex-button-320x68-pressed-connected-depth" data-layer="connected-depth" transform="translate(0 1)"><path d="M36 4H284L318 34L284 64H36L2 34Z" fill="#071522" opacity=".9"/></g><g id="m11-primary-hex-button-320x68-pressed-outer-frame" data-layer="outer-frame"><path d="M36 4H284L318 34L284 64H36L2 34Z" fill="#071421" stroke="#D4D9A6" stroke-width="2" stroke-linejoin="miter"/></g><g id="m11-primary-hex-button-320x68-pressed-inner-plate-fill" data-layer="inner-plate-fill"><path d="M36 4H284L318 34L284 64H36L2 34Z" fill="url(#m11-primary-hex-button-320x68-pressed-primary)"/></g><g id="m11-primary-hex-button-320x68-pressed-surface-grain" data-layer="surface-grain" data-material-source="m8-ice-grain" mask="url(#m11-primary-hex-button-320x68-pressed-mask)"><rect width="320" height="68" fill="url(#m11-primary-hex-button-320x68-pressed-grain)"/></g><g id="m11-primary-hex-button-320x68-pressed-surface-pattern" data-layer="surface-pattern" data-material-source="m8-crystal-facet-pattern" mask="url(#m11-primary-hex-button-320x68-pressed-mask)"><rect width="320" height="68" fill="url(#m11-primary-hex-button-320x68-pressed-plate-pattern)"/></g><g id="m11-primary-hex-button-320x68-pressed-side-bevel-shade" data-layer="side-bevel-shade" mask="url(#m11-primary-hex-button-320x68-pressed-mask)"><path d="M36 4H284L318 34L284 64H36L2 34Z" fill="none" stroke="#020812" stroke-opacity=".38" stroke-width="5"/></g><g id="m11-primary-hex-button-320x68-pressed-top-bevel-highlight" data-layer="top-bevel-highlight" mask="url(#m11-primary-hex-button-320x68-pressed-mask)"><path d="M44 10H276" stroke="#FFFFFF" stroke-opacity=".55" stroke-width="3" stroke-linecap="square"/></g><g id="m11-primary-hex-button-320x68-pressed-cold-edge-accent" data-layer="cold-edge-accent" data-material-source="m8-cold-edge-accent" mask="url(#m11-primary-hex-button-320x68-pressed-mask)"><rect x="34" y="8" width="252" height="8" fill="url(#m11-primary-hex-button-320x68-pressed-energy)"/></g><g id="m11-primary-hex-button-320x68-pressed-ornament-decal" data-layer="ornament-decal" data-material-source="m7-ornament-marks" mask="url(#m11-primary-hex-button-320x68-pressed-mask)"><path d="M42 55h16M262 55h16" stroke="#E6FCFF" stroke-opacity=".5" stroke-width="2"/></g><g id="m11-primary-hex-button-material-stack" data-layer="forest-material-stack" data-material-families="weathered-stone,dark-wood,moss-lichen"><path d="M38 4H282L316 33L282 62H38L4 33Z" fill="#20382B"/></g><g id="m11-primary-hex-button-material-detail" data-layer="forest-material-detail" data-material-channels="stone-chips,wood-grain,moss-mask" data-detail-scale="component"><path d="M54.400000000000006 12.24l25.6 3.4000000000000004M198.4 10.88l22.400000000000002 4.08M89.60000000000001 47.599999999999994l22.400000000000002 2.72" stroke="#6B8063" stroke-width="1.2" stroke-opacity=".72"/></g><g id="m11-primary-hex-button-material-face-depth" data-layer="forest-material-face-depth" data-material-source="shared-face-geometry"><clipPath id="m11-primary-hex-button-face-clip"><path d="M38 4H282L316 33L282 62H38L4 33Z"/></clipPath><g clip-path="url(#m11-primary-hex-button-face-clip)"><g data-layer="forest-weathered-stone"><path d="M38.4 14.96l14.399999999999999 1.7000000000000002 -8 2.72 -14.399999999999999 -1.224ZM246.4 49.64l16 1.36 -5.76 3.06 -16.64 -1.224Z" fill="#7C8D70" fill-opacity=".45"/><path d="M102.4 9.520000000000001l5.76 1.768 -6.4 1.9040000000000001M217.60000000000002 55.76l6.4 -1.9040000000000001 6.720000000000001 1.7000000000000002" fill="none" stroke="#9BA687" stroke-width="1" stroke-opacity=".55"/></g><g data-layer="forest-dark-wood-grain"><path d="M35.2 31.28q14.399999999999999 -1.224 28.799999999999997 0M134.4 34.68q12.8 1.224 25.6 0M230.39999999999998 31.959999999999997q14.399999999999999 -1.088 28.799999999999997 0" fill="none" stroke="#72854C" stroke-width="1.1" stroke-opacity=".62"/></g><g data-layer="forest-moss-growth-mask" fill="#9BCB78" fill-opacity=".48"><ellipse cx="57.599999999999994" cy="21.08" rx="4.48" ry="1.5"/><ellipse cx="262.4" cy="46.919999999999995" rx="4.48" ry="1.5"/></g></g></g><g id="m11-primary-hex-button-material-restraint" data-layer="forest-material-restraint" data-restraint="edge-anchored-low-opacity"><clipPath id="m11-primary-hex-button-restraint-clip"><path d="M38 4H282L316 33L282 62H38L4 33Z"/></clipPath><g clip-path="url(#m11-primary-hex-button-restraint-clip)"><path d="M0 0H320V68H0Z" fill="#20382B" fill-opacity=".42"/><g data-layer="forest-moss-edge-anchor" fill="#20382B" fill-opacity=".78"><path d="M32 19.040000000000003q19.2 -3.4000000000000004 41.6 0q16 2.72 35.2 -.01l-9.6 3.4000000000000004q-44.800000000000004 2.72 -80 -.02Z"/><path d="M201.6 50.32q25.6 -4.08 54.400000000000006 -.01q25.6 2.72 44.800000000000004 -.03l-6.4 4.08q-51.2 3.06 -96 -.01Z"/></g><path d="M25.6 11.56q14.399999999999999 -1.9040000000000001 28.799999999999997 0M249.60000000000002 55.76q14.399999999999999 -1.9040000000000001 28.799999999999997 0" fill="none" stroke="#9BCB78" stroke-width="1.5" stroke-opacity=".42"/></g></g><g id="m11-primary-hex-button-authored-material-clusters" data-layer="forest-authored-material-clusters" data-material-families="stone,wood,moss" data-variation-seed="51731" data-cluster-count="4" data-cluster-scale="component" data-placement="component-aware"><clipPath id="m11-primary-hex-button-cluster-clip"><path d="M38 4H282L316 33L282 62H38L4 33Z"/></clipPath><g clip-path="url(#m11-primary-hex-button-cluster-clip)"><g data-layer="forest-authored-cluster" data-cluster-kind="stone-chip" transform="translate(38.7 15.3) rotate(-4)"><g data-layer="forest-stone-chip-cluster" data-material-family="stone" transform="scale(1.037)"><path d="M-4.8-1.2l2.2-3.1 4.1.5 3.4 2.5-1.2 3.9-4.3 1.8-4.7-2.1Z" fill="#75816E" fill-opacity=".82" stroke="#A6AE91" stroke-width="0.70"/><path d="M-2.6-3.4l2.1 2.5 2.8-1.4M-.5-.9l-1.2 3.5" fill="none" stroke="#495C4C" stroke-width="0.70" stroke-opacity=".9"/><path d="M-3.8-1.7l2.2-1.5" stroke="#C0C5A9" stroke-width="0.70" stroke-opacity=".48"/></g></g><g data-layer="forest-authored-cluster" data-cluster-kind="wood-knot" transform="translate(68.5 47.5) rotate(-1)"><g data-layer="forest-wood-knot-cluster" data-material-family="wood" transform="scale(0.936)"><path d="M-6.5 2.8q3.2-2.1 5.8-1.4 2.9.8 7.1-2.2M-6-1.1q3.1-3.1 6.3-1.4 2.8 1.5 6.2-.7M-4.4 4.5q4.1-1.8 8.8-.3" fill="none" stroke="#7F8D57" stroke-width="0.70" stroke-opacity=".9"/><path d="M-2.9.7c-.1-2.7 2.2-3.7 4.5-2.5 2 1 1.9 3.5.1 4.8-2.1 1.6-4.5.2-4.6-2.3Z" fill="#435238" fill-opacity=".9"/><path d="M-1.8.5c.2-1.6 1.7-2.2 3-1.4 1.1.7.9 2.1-.1 2.7-.9.5-1.8.2-2.1-.5.1-.7.8-1 1.4-.6" fill="none" stroke="#A0AE70" stroke-width="0.70" stroke-opacity=".9"/><path d="M2.3-3.1q1.9 1.2 3.5.1" fill="none" stroke="#A0AE70" stroke-width="0.70" stroke-opacity=".55"/></g></g><g data-layer="forest-authored-cluster" data-cluster-kind="moss-lichen" transform="translate(243.4 20.5) rotate(-2)"><g data-layer="forest-moss-lichen-cluster" data-material-family="moss" transform="scale(0.883)"><path d="M-6.5 3.4l.8-3.1 1.7.5.9-3 2.1 1.1 1.3-3 1.8 2.2 2.2-1.3.6 2.5 2.3.6-1 3.1-2.8-.4-1.6 1.8-2.2-1-2.4 1.2-1.8-1.3Z" fill="#668E58" fill-opacity=".88" stroke="#94BF70" stroke-width="0.70"/><ellipse cx="-3.7" cy="-.7" rx="1.35" ry="1" fill="#A8CF79"/><ellipse cx="-.4" cy="-1.7" rx="1.65" ry="1.2" fill="#7FB467"/><ellipse cx="3" cy="-.5" rx="1.45" ry="1.1" fill="#B7D985"/><circle cx="5.1" cy="-2.3" r=".65" fill="#D0E39A"/><circle cx="-1.8" cy="1.6" r=".7" fill="#B8D986"/><path d="M-5.7 3.5q5.8 1.5 11.3-.5" fill="none" stroke="#405B3C" stroke-width="0.70"/></g></g><g data-layer="forest-authored-cluster" data-cluster-kind="stone-chip" transform="translate(286.0 48.2) rotate(-2)"><g data-layer="forest-stone-chip-cluster" data-material-family="stone" transform="scale(1.103)"><path d="M-4.8-1.2l2.2-3.1 4.1.5 3.4 2.5-1.2 3.9-4.3 1.8-4.7-2.1Z" fill="#75816E" fill-opacity=".82" stroke="#A6AE91" stroke-width="0.70"/><path d="M-2.6-3.4l2.1 2.5 2.8-1.4M-.5-.9l-1.2 3.5" fill="none" stroke="#495C4C" stroke-width="0.70" stroke-opacity=".9"/><path d="M-3.8-1.7l2.2-1.5" stroke="#C0C5A9" stroke-width="0.70" stroke-opacity=".48"/></g></g></g></g><g id="m11-primary-hex-button-moss-variation" data-layer="forest-variation" data-variation-seed="51731" data-variation-baseline="false" fill="#A6CC72" fill-opacity=".38"><circle cx="164.39" cy="16.96" r="3.0"/><circle cx="157.88" cy="28.02" r="2.4"/><circle cx="25.36" cy="15.06" r="1.8"/><circle cx="55.71" cy="22.45" r="2.0"/><circle cx="144.63" cy="36.41" r="2.0"/><circle cx="163.73" cy="47.95" r="2.0"/><circle cx="33.75" cy="29.90" r="1.7"/></g><g id="m11-primary-hex-button-leaf-vine-ornament" data-layer="forest-ornament" data-ornament="leaf-vine" data-ornament-count="4" fill="none" stroke="#76B86D" stroke-opacity=".78" stroke-width="1.8"><path d="M12 18c8-8 14-8 20-2M308 18c-8-8-14-8-20-2M18 50c8-7 15-7 22-1M302 50c-8-7-15-7-22-1"/><path d="M24 14l5-5M296 14l-5-5"/></g><g id="m11-primary-hex-button-parchment-typography" data-layer="forest-typography" data-typography-preset="m11-parchment-sage-action" data-semantic-text="required"><path d="M132 47h56" stroke="#EDE3B4" stroke-opacity=".42"/></g><g id="m11-enchanted-forest-primary-hex-button-content" data-layer="content" data-slot="editable-primary-hex-button-content" data-safe-x="48" data-safe-y="10" data-safe-width="224" data-safe-height="50"/></g></svg>